<?xml version="1.0" standalone="no"?>
<!DOCTYPE svg PUBLIC "-//W3C//DTD SVG 20010904//EN"
 "http://www.w3.org/TR/2001/REC-SVG-20010904/DTD/svg10.dtd">
<svg version="1.0" xmlns="http://www.w3.org/2000/svg"
 width="1773.000000pt" height="593.000000pt" viewBox="0 0 1773.000000 593.000000"
 preserveAspectRatio="xMidYMid meet">

<g transform="translate(0.000000,593.000000) scale(0.100000,-0.100000)"
fill="#000000" stroke="none">
<path d="M5330 5223 c-19 -10 -45 -33 -57 -52 l-23 -34 0 -2434 c0 -2659 -4
-2465 56 -2512 37 -29 115 -29 155 0 64 45 59 -158 59 2511 0 2394 0 2434 -20
2465 -38 64 -110 87 -170 56z"/>
<path d="M1350 4578 c-139 -20 -279 -131 -337 -266 l-28 -67 -3 -1089 c-1
-687 1 -1108 7 -1142 25 -133 122 -257 248 -317 l68 -32 568 -3 567 -3 0 -78
c0 -128 34 -189 115 -210 61 -15 607 -13 659 2 24 8 51 26 70 50 29 37 31 44
34 138 l4 98 567 3 567 3 75 37 c93 46 168 122 212 215 l32 68 0 1135 0 1135
-32 67 c-55 116 -157 207 -273 243 -51 16 -167 18 -1560 19 -828 1 -1530 -2
-1560 -6z m3057 -298 c25 -11 51 -33 63 -52 20 -32 20 -48 20 -967 l0 -934
-44 -43 -44 -44 -1525 2 -1525 3 -27 25 c-58 54 -55 1 -55 1001 l0 922 22 35
c12 20 38 42 62 53 39 18 100 19 1526 19 1443 0 1486 -1 1527 -20z m13 -2199
c22 -11 44 -36 59 -64 75 -146 -96 -290 -226 -191 -47 36 -66 78 -61 134 11
113 128 175 228 121z"/>
<path d="M1500 3936 l0 -54 153 -62 c83 -34 163 -68 177 -75 l25 -13 -27 -11
c-15 -6 -89 -36 -165 -67 -76 -31 -144 -58 -150 -61 -8 -3 -13 -25 -13 -59 0
-30 1 -54 3 -54 1 0 115 47 252 104 l250 105 0 46 0 46 -250 105 c-137 57
-251 104 -252 104 -2 0 -3 -24 -3 -54z"/>
<path d="M2070 3375 l0 -35 265 0 265 0 0 35 0 35 -265 0 -265 0 0 -35z"/>
<path d="M7702 4303 l3 -178 243 -3 242 -2 0 180 0 180 -245 0 -245 0 2 -177z"/>
<path d="M14832 4303 l3 -178 243 -3 242 -2 0 180 0 180 -245 0 -245 0 2 -177z"/>
<path d="M6170 3410 l0 -980 245 0 245 0 0 420 0 420 380 0 380 0 0 190 0 190
-380 0 -380 0 2 183 3 182 413 3 412 2 0 185 0 185 -660 0 -660 0 0 -980z"/>
<path d="M13020 3410 l0 -981 498 4 c426 3 508 6 571 21 111 26 174 52 256
107 123 82 199 190 231 325 22 94 15 247 -14 328 -44 120 -144 214 -282 263
-36 13 -72 26 -80 29 -10 4 1 14 34 31 73 37 142 112 183 198 30 64 36 90 41
163 11 202 -65 341 -231 422 -130 62 -133 63 -694 68 l-513 4 0 -982z m801
608 c109 -25 163 -135 129 -260 -16 -55 -54 -94 -116 -117 -45 -17 -78 -21
-189 -21 l-135 0 0 205 0 205 129 0 c71 0 153 -5 182 -12z m96 -753 c115 -34
164 -99 165 -218 0 -121 -43 -186 -150 -228 -49 -19 -81 -23 -239 -27 l-183
-4 0 246 0 246 178 0 c129 0 192 -4 229 -15z"/>
<path d="M11110 4120 l0 -210 -85 0 -85 0 0 -160 0 -160 84 0 84 0 5 -407 c3
-338 7 -418 20 -466 51 -179 153 -266 357 -303 119 -21 337 -14 478 16 l52 12
0 164 c0 187 7 176 -96 143 -90 -29 -224 -25 -272 9 -67 48 -67 47 -70 460
l-3 372 221 0 220 0 0 160 0 160 -220 0 -220 0 0 210 0 210 -235 0 -235 0 0
-210z"/>
<path d="M15680 4120 l0 -210 -85 0 -85 0 0 -160 0 -160 84 0 84 0 5 -407 c5
-438 8 -468 60 -569 86 -170 312 -240 653 -204 50 5 114 14 142 21 l52 11 0
165 0 165 -27 -5 c-16 -3 -53 -12 -83 -21 -113 -33 -238 -18 -285 34 -41 45
-44 81 -45 453 l0 357 220 0 220 0 0 160 0 160 -220 0 -220 0 0 210 0 210
-235 0 -235 0 0 -210z"/>
<path d="M10080 3931 c-161 -35 -274 -94 -359 -187 -94 -102 -127 -210 -109
-354 18 -150 98 -257 243 -327 65 -31 115 -45 359 -102 117 -27 157 -49 174
-93 12 -30 11 -40 -2 -72 -24 -57 -83 -79 -223 -84 -98 -4 -123 -1 -203 22
-102 29 -210 80 -280 131 -82 60 -80 63 -80 -163 l0 -198 73 -28 c247 -96 594
-112 815 -37 208 72 344 214 371 387 21 138 -26 295 -112 370 -56 49 -183 107
-287 132 -47 11 -128 30 -180 43 -129 30 -175 52 -195 95 -19 40 -13 68 23
106 42 46 108 61 236 55 133 -6 219 -33 344 -107 46 -28 90 -50 98 -50 12 0
14 32 14 189 l0 190 -57 21 c-143 54 -241 72 -413 76 -134 3 -181 0 -250 -15z"/>
<path d="M9373 3909 c-107 -13 -227 -73 -337 -170 l-46 -41 0 106 0 106 -230
0 -230 0 0 -740 0 -740 230 0 230 0 0 496 0 495 35 15 c111 46 315 68 430 45
22 -4 46 -6 53 -3 9 3 12 58 12 218 l0 214 -22 1 c-13 1 -32 2 -43 3 -11 1
-48 -1 -82 -5z"/>
<path d="M7720 3170 l0 -740 230 0 230 0 0 740 0 740 -230 0 -230 0 0 -740z"/>
<path d="M14850 3170 l0 -740 230 0 230 0 0 740 0 740 -230 0 -230 0 0 -740z"/>
<path d="M15756 1598 c-20 -62 -78 -246 -129 -408 l-93 -295 59 -3 c33 -2 61
-1 64 1 2 3 60 182 129 398 68 217 126 400 129 407 3 9 -13 12 -60 12 l-64 0
-35 -112z"/>
<path d="M9673 1672 c-112 -40 -158 -102 -151 -206 7 -107 62 -154 223 -191
93 -22 115 -37 115 -79 0 -29 -5 -36 -34 -50 -65 -31 -174 -12 -257 44 -24 16
-47 30 -51 30 -5 0 -8 -36 -8 -79 l0 -79 38 -15 c103 -41 265 -47 348 -12 44
18 99 67 120 107 8 15 14 54 14 86 0 103 -52 155 -192 191 -151 39 -180 65
-133 119 21 25 29 27 97 27 61 0 83 -5 133 -30 33 -16 63 -31 67 -33 5 -2 8
30 8 72 l0 75 -52 16 c-85 26 -223 29 -285 7z"/>
<path d="M12223 1672 c-98 -35 -153 -93 -184 -194 -55 -176 7 -362 146 -433
54 -27 67 -30 154 -29 68 0 107 6 134 18 58 25 122 90 148 149 21 45 24 68 24
167 0 99 -3 122 -23 165 -50 108 -138 165 -267 172 -61 3 -92 -1 -132 -15z
m173 -118 c54 -26 84 -98 84 -203 0 -96 -18 -148 -64 -191 -22 -20 -38 -25
-81 -25 -46 0 -58 4 -85 30 -37 35 -60 107 -60 185 0 166 92 258 206 204z"/>
<path d="M14753 1672 c-112 -40 -158 -102 -151 -206 7 -107 62 -154 223 -191
113 -26 145 -61 101 -112 -44 -51 -181 -39 -277 27 -24 16 -47 30 -51 30 -5 0
-8 -36 -8 -79 l0 -79 38 -15 c108 -43 271 -47 354 -8 90 42 128 97 128 187 0
105 -51 157 -192 193 -124 32 -148 45 -148 79 0 49 31 67 114 67 59 0 81 -5
131 -30 33 -16 63 -31 67 -33 5 -2 8 30 8 72 l0 75 -52 16 c-85 26 -223 29
-285 7z"/>
<path d="M7230 1625 l0 -55 45 0 c25 0 45 -3 45 -7 1 -26 1 -400 1 -410 -1 -9
-17 -13 -46 -13 l-45 0 0 -55 0 -55 180 0 180 0 0 55 0 55 -50 0 -50 0 0 215
0 215 48 0 48 0 0 55 -1 55 -177 0 -178 0 0 -55z"/>
<path d="M7700 1355 l0 -327 173 4 c152 3 178 7 222 26 109 50 175 148 183
273 9 149 -46 252 -165 311 -67 33 -68 33 -240 36 l-173 4 0 -327z m303 191
c50 -20 95 -78 103 -131 24 -166 -46 -265 -189 -265 l-57 0 0 205 0 205 55 0
c31 0 70 -6 88 -14z"/>
<path d="M8380 1355 l0 -325 220 0 220 0 0 60 0 60 -140 0 -140 0 0 85 0 85
130 0 130 0 0 60 0 60 -130 0 -130 0 0 60 0 60 140 0 140 0 0 60 0 60 -220 0
-220 0 0 -325z"/>
<path d="M9075 1668 c-17 -47 -215 -631 -215 -634 0 -3 37 -4 82 -2 l82 3 19
63 19 63 105 -3 105 -3 20 -62 19 -63 84 0 84 0 -109 321 c-61 177 -110 323
-110 325 0 2 -41 4 -90 4 -63 0 -92 -4 -95 -12z m124 -277 c17 -55 31 -102 31
-105 0 -3 -30 -6 -66 -6 -51 0 -65 3 -61 13 3 7 17 55 33 105 15 51 28 92 30
92 1 0 16 -45 33 -99z"/>
<path d="M10350 1625 l0 -55 45 0 c25 0 45 -3 45 -7 1 -26 1 -400 1 -410 -1
-9 -17 -13 -46 -13 l-45 0 0 -55 0 -55 180 0 180 0 0 55 0 55 -50 0 -50 0 0
215 0 215 48 0 48 0 0 55 -1 55 -177 0 -178 0 0 -55z"/>
<path d="M10820 1355 l0 -325 75 0 75 0 2 221 3 220 121 -218 121 -218 82 -3
81 -3 0 326 0 325 -75 0 -75 0 0 -182 c0 -107 -4 -178 -9 -172 -5 5 -52 86
-104 179 l-95 170 -101 3 -101 3 0 -326z"/>
<path d="M11440 1620 l0 -60 95 0 95 0 0 -265 0 -265 85 0 85 0 0 265 0 265
95 0 95 0 0 60 0 60 -275 0 -275 0 0 -60z"/>
<path d="M13020 1355 l0 -325 163 0 c225 0 297 24 338 114 41 91 14 181 -66
221 l-40 20 32 29 c63 54 67 154 9 212 -45 45 -89 54 -273 54 l-163 0 0 -325z
m290 185 c20 -20 26 -65 12 -86 -14 -21 -51 -34 -96 -34 l-46 0 0 70 0 70 55
0 c42 0 60 -5 75 -20z m34 -251 c26 -20 34 -57 20 -94 -11 -27 -60 -45 -124
-45 l-60 0 0 80 0 80 69 0 c54 0 74 -4 95 -21z"/>
<path d="M13610 1625 l0 -55 48 0 47 0 0 -215 0 -215 -47 0 -48 0 0 -55 0 -55
181 0 180 0 -3 53 -3 52 -47 3 -48 3 0 214 0 214 48 3 47 3 0 40 c0 68 9 65
-181 65 l-174 0 0 -55z"/>
<path d="M14010 1620 l0 -60 95 0 95 0 0 -265 0 -265 85 0 85 0 0 265 0 265
95 0 95 0 0 60 0 60 -275 0 -275 0 0 -60z"/>
<path d="M6738 1491 l-278 -116 0 -50 0 -50 203 -84 c111 -46 237 -99 280
-117 l77 -33 0 62 0 62 -196 79 c-107 43 -193 80 -192 81 2 2 86 37 188 79
102 42 188 80 193 85 4 4 7 33 5 63 l-3 55 -277 -116z"/>
<path d="M16162 1550 l3 -62 190 -79 c105 -43 193 -80 198 -82 4 -1 -81 -38
-189 -82 -108 -44 -198 -85 -201 -91 -2 -6 -3 -34 -1 -62 l3 -51 280 117 280
117 0 50 0 49 -270 114 c-148 62 -276 116 -283 119 -10 4 -12 -9 -10 -57z"/>
<path d="M1789 1173 c-58 -53 -79 -99 -79 -178 l0 -65 1170 0 1170 0 0 83 c0
96 -17 140 -69 174 l-34 23 -1058 0 -1059 0 -41 -37z"/>
</g>
</svg>
